<svg xmlns="http://www.w3.org/2000/svg" width="240" height="160" viewBox="0 0 240 160">
  <!-- Background -->
  <rect width="240" height="160" fill="#0a0a0a"/>

  <!-- Top bar -->
  <rect width="240" height="26" fill="#111111"/>
  <circle cx="12" cy="13" r="3.5" fill="#2a2a2a"/>
  <circle cx="22" cy="13" r="3.5" fill="#2a2a2a"/>
  <circle cx="32" cy="13" r="3.5" fill="#2a2a2a"/>
  <text x="50" y="17" font-family="monospace" font-size="7" fill="#555555">freelatracker.app / admin</text>

  <!-- Sidebar -->
  <rect x="0" y="26" width="38" height="134" fill="#0e0e0e"/>
  <rect x="6" y="36" width="26" height="5" rx="2" fill="#1e1e1e"/>
  <rect x="6" y="46" width="26" height="5" rx="2" fill="#4d9fff" opacity="0.8"/>
  <rect x="6" y="56" width="26" height="5" rx="2" fill="#1e1e1e"/>
  <rect x="6" y="66" width="26" height="5" rx="2" fill="#1e1e1e"/>
  <rect x="6" y="76" width="26" height="5" rx="2" fill="#1e1e1e"/>
  <rect x="38" y="26" width="1" height="134" fill="#1e1e1e"/>

  <!-- Card: Horas -->
  <rect x="45" y="32" width="58" height="38" rx="2" fill="#111111" stroke="#1e1e1e" stroke-width="1"/>
  <text x="51" y="44" font-family="monospace" font-size="6" fill="#555555">horas hoje</text>
  <text x="51" y="60" font-family="monospace" font-size="18" font-weight="bold" fill="#e8e8e8">3:42</text>
  <text x="51" y="67" font-family="monospace" font-size="6" fill="#4ade80">● gravando</text>

  <!-- Card: Projetos -->
  <rect x="109" y="32" width="58" height="38" rx="2" fill="#111111" stroke="#1e1e1e" stroke-width="1"/>
  <text x="115" y="44" font-family="monospace" font-size="6" fill="#555555">projetos</text>
  <text x="115" y="60" font-family="monospace" font-size="18" font-weight="bold" fill="#e8e8e8">7</text>
  <text x="115" y="67" font-family="monospace" font-size="6" fill="#facc15">3 ativos</text>

  <!-- Card: A receber -->
  <rect x="173" y="32" width="58" height="38" rx="2" fill="#111111" stroke="#1e1e1e" stroke-width="1"/>
  <text x="179" y="44" font-family="monospace" font-size="6" fill="#555555">a receber</text>
  <text x="179" y="59" font-family="monospace" font-size="13" font-weight="bold" fill="#e8e8e8">R$4.2k</text>
  <text x="179" y="67" font-family="monospace" font-size="6" fill="#4d9fff">2 pagtos</text>

  <!-- Task list header -->
  <text x="45" y="84" font-family="monospace" font-size="6" fill="#555555">entregas recentes</text>

  <!-- Task rows -->
  <rect x="45" y="88" width="186" height="14" rx="1" fill="#111111" stroke="#1e1e1e" stroke-width="1"/>
  <rect x="49" y="93" width="4" height="4" rx="1" fill="#4ade80" opacity="0.8"/>
  <text x="57" y="99" font-family="monospace" font-size="6" fill="#cccccc">Layout dashboard — Redesign</text>
  <text x="206" y="99" font-family="monospace" font-size="6" fill="#555555">hoje</text>

  <rect x="45" y="105" width="186" height="14" rx="1" fill="#111111" stroke="#1e1e1e" stroke-width="1"/>
  <rect x="49" y="110" width="4" height="4" rx="1" fill="#facc15" opacity="0.8"/>
  <text x="57" y="116" font-family="monospace" font-size="6" fill="#cccccc">Integração API pagamentos</text>
  <text x="197" y="116" font-family="monospace" font-size="6" fill="#555555">amanhã</text>

  <rect x="45" y="122" width="186" height="14" rx="1" fill="#111111" stroke="#1e1e1e" stroke-width="1"/>
  <rect x="49" y="127" width="4" height="4" rx="1" fill="#f87171" opacity="0.8"/>
  <text x="57" y="133" font-family="monospace" font-size="6" fill="#cccccc">Documentação endpoint REST</text>
  <text x="200" y="133" font-family="monospace" font-size="6" fill="#f87171">atrasado</text>

  <!-- Progress bar -->
  <rect x="45" y="143" width="186" height="7" rx="2" fill="#1a1a1a"/>
  <rect x="45" y="143" width="118" height="7" rx="2" fill="#4d9fff" opacity="0.7"/>
  <text x="45" y="157" font-family="monospace" font-size="6" fill="#555555">sprint atual</text>
  <text x="200" y="157" font-family="monospace" font-size="6" fill="#4d9fff">63%</text>
</svg>
