<svg xmlns="http://www.w3.org/2000/svg" width="240" height="160" viewBox="0 0 240 160">
  <rect width="240" height="160" fill="#0c0a09"/>
  <rect width="240" height="26" fill="#111111"/>
  <circle cx="12" cy="13" r="3.5" fill="#2a2a2a"/>
  <circle cx="22" cy="13" r="3.5" fill="#2a2a2a"/>
  <circle cx="32" cy="13" r="3.5" fill="#2a2a2a"/>
  <text x="50" y="17" font-family="monospace" font-size="7" fill="#555555">nero.app / chat</text>

  <text x="12" y="58" font-family="monospace" font-size="28" font-weight="bold" fill="#f97316" letter-spacing="6" opacity="0.9">NERO</text>
  <text x="12" y="70" font-family="monospace" font-size="6" fill="#57534e" letter-spacing="3">SISTEMA DE EVOLUÇÃO</text>

  <rect x="12" y="78" width="100" height="2" rx="1" fill="#1c1917"/>
  <rect x="12" y="78" width="72" height="2" rx="1" fill="#f97316" opacity="0.7"/>

  <rect x="12" y="90" width="130" height="16" rx="4" fill="#f97316" opacity="0.15"/>
  <rect x="14" y="93" width="4" height="4" rx="1" fill="#f97316"/>
  <text x="22" y="101" font-family="monospace" font-size="6.5" fill="#a8a29e">Criar tarefa: reunião às 15h</text>

  <rect x="12" y="110" width="140" height="16" rx="4" fill="#1c1917"/>
  <rect x="14" y="113" width="4" height="4" rx="1" fill="#f97316" opacity="0.6"/>
  <text x="22" y="121" font-family="monospace" font-size="6.5" fill="#78716c">✅ Tarefa criada para hoje às 15:00</text>

  <rect x="0" y="148" width="240" height="12" fill="#0e0c0b"/>
  <rect x="12" y="152" width="6" height="6" rx="1" fill="#4ade80" opacity="0.8"/>
  <text x="22" y="157" font-family="monospace" font-size="6" fill="#555555">PWA · Cloudflare · ElevenLabs TTS</text>
  <text x="210" y="157" font-family="monospace" font-size="6" fill="#57534e">v5</text>
</svg>
